<svg width="327.000000" height="59.000000" viewBox="0 0 327 59" fill="none" xmlns="http://www.w3.org/2000/svg" xmlns:xlink="http://www.w3.org/1999/xlink">
	<desc>
			Created with Pixso.
	</desc>
	<defs/>
	<path d="M27.5979 5.8541L23.3259 19.002C23.0581 19.8261 22.2902 20.384 21.4238 20.384L7.5992 20.384C5.66176 20.384 4.8562 22.8632 6.42363 24.002L17.6079 32.1279C18.3089 32.6372 18.6022 33.5399 18.3345 34.364L14.0625 47.5119C13.4637 49.3545 15.5727 50.8868 17.1401 49.748L28.3244 41.6221C29.0254 41.1128 29.9746 41.1128 30.6756 41.6221L41.8599 49.748C43.4273 50.8868 45.5363 49.3545 44.9376 47.5119L40.6655 34.364C40.3978 33.5399 40.6911 32.6372 41.3921 32.1279L52.5764 24.002C54.1438 22.8632 53.3382 20.384 51.4008 20.384L37.5762 20.384C36.7098 20.384 35.9419 19.8261 35.6741 19.002L31.4021 5.8541C30.8034 4.01147 28.1966 4.01147 27.5979 5.8541Z" fill="#FFD336" fill-opacity="1.000000" fill-rule="evenodd"/>
	<path d="M94.5979 5.8541L90.3259 19.002C90.0581 19.8261 89.2902 20.384 88.4238 20.384L74.5992 20.384C72.6618 20.384 71.8562 22.8632 73.4236 24.002L84.6079 32.1279C85.3089 32.6372 85.6022 33.5399 85.3345 34.364L81.0624 47.5119C80.4637 49.3545 82.5727 50.8868 84.1401 49.748L95.3244 41.6221C96.0254 41.1128 96.9746 41.1128 97.6756 41.6221L108.86 49.748C110.427 50.8868 112.536 49.3545 111.938 47.5119L107.666 34.364C107.398 33.5399 107.691 32.6372 108.392 32.1279L119.576 24.002C121.144 22.8632 120.338 20.384 118.401 20.384L104.576 20.384C103.71 20.384 102.942 19.8261 102.674 19.002L98.4021 5.8541C97.8034 4.01147 95.1966 4.01147 94.5979 5.8541Z" fill="#FFD336" fill-opacity="1.000000" fill-rule="evenodd"/>
	<path d="M161.598 5.8541L157.326 19.002C157.058 19.8261 156.29 20.384 155.424 20.384L141.599 20.384C139.662 20.384 138.856 22.8632 140.424 24.002L151.608 32.1279C152.309 32.6372 152.602 33.5399 152.334 34.364L148.062 47.5119C147.464 49.3545 149.573 50.8868 151.14 49.748L162.324 41.6221C163.025 41.1128 163.975 41.1128 164.676 41.6221L175.86 49.748C177.427 50.8868 179.536 49.3545 178.938 47.5119L174.666 34.364C174.398 33.5399 174.691 32.6372 175.392 32.1279L186.576 24.002C188.144 22.8632 187.338 20.384 185.401 20.384L171.576 20.384C170.71 20.384 169.942 19.8261 169.674 19.002L165.402 5.8541C164.803 4.01147 162.197 4.01147 161.598 5.8541Z" fill="#FFD336" fill-opacity="1.000000" fill-rule="evenodd"/>
	<path d="M228.598 5.8541L224.326 19.002C224.058 19.8261 223.29 20.384 222.424 20.384L208.599 20.384C206.662 20.384 205.856 22.8632 207.424 24.002L218.608 32.1279C219.309 32.6372 219.602 33.5399 219.334 34.364L215.062 47.5119C214.464 49.3545 216.573 50.8868 218.14 49.748L229.324 41.6221C230.025 41.1128 230.975 41.1128 231.676 41.6221L242.86 49.748C244.427 50.8868 246.536 49.3545 245.938 47.5119L241.666 34.364C241.398 33.5399 241.691 32.6372 242.392 32.1279L253.576 24.002C255.144 22.8632 254.338 20.384 252.401 20.384L238.576 20.384C237.71 20.384 236.942 19.8261 236.674 19.002L232.402 5.8541C231.803 4.01147 229.197 4.01147 228.598 5.8541Z" fill="#C4C4C4" fill-opacity="1.000000" fill-rule="evenodd"/>
	<path d="M295.598 5.8541L291.326 19.002C291.058 19.8261 290.29 20.384 289.424 20.384L275.599 20.384C273.662 20.384 272.856 22.8632 274.424 24.002L285.608 32.1279C286.309 32.6372 286.602 33.5399 286.334 34.364L282.062 47.5119C281.464 49.3545 283.573 50.8868 285.14 49.748L296.324 41.6221C297.025 41.1128 297.975 41.1128 298.676 41.6221L309.86 49.748C311.427 50.8868 313.536 49.3545 312.938 47.5119L308.666 34.364C308.398 33.5399 308.691 32.6372 309.392 32.1279L320.576 24.002C322.144 22.8632 321.338 20.384 319.401 20.384L305.576 20.384C304.71 20.384 303.942 19.8261 303.674 19.002L299.402 5.8541C298.803 4.01147 296.197 4.01147 295.598 5.8541Z" fill="#C4C4C4" fill-opacity="1.000000" fill-rule="evenodd"/>
</svg>
